<svg width="70" height="70" viewBox="0 0 70 70" fill="none" xmlns="http://www.w3.org/2000/svg">
                                          <path d="M61.511 50.7842C64.8541 48.7325 67.084 45.0434 67.084 40.8334C67.084 34.3901 61.8606 29.1667 55.4173 29.1667C48.974 29.1667 43.7507 34.3901 43.7507 40.8334C43.7507 45.0434 45.9806 48.7325 49.3237 50.7842C47.7694 51.4275 46.3383 52.318 45.1053 53.4276C42.3704 55.8891 40.834 59.2275 40.834 62.7084V70.0001H70.0007V62.7084C70.0007 59.2275 68.4642 55.8891 65.7293 53.4276C64.4963 52.318 63.0653 51.4275 61.511 50.7842Z" fill="currentColor"/>
                                          <path d="M26.2493 29.8561H29.166V38.6379H26.2493V29.8561Z" fill="currentColor"/>
                                          <path d="M26.2493 41.5652H29.166V44.4925H26.2493V41.5652Z" fill="currentColor"/>
                                          <path d="M29.166 18.147V15.2197C34.9993 15.2197 37.916 18.147 37.916 24.0015L34.9993 24.0015C34.9993 21.0743 32.0827 18.147 29.166 18.147Z" fill="currentColor"/>
                                          <path d="M29.166 29.8561L29.166 32.7834C34.9993 32.7834 37.916 29.8561 37.916 24.0015L34.9993 24.0015C34.9993 26.9288 32.0827 29.8561 29.166 29.8561Z" fill="currentColor"/>
                                          <path d="M29.166 18.147V15.2197C23.3327 15.2197 20.416 18.147 20.416 24.0015L23.3327 24.0015C23.3327 21.0743 26.2493 18.147 29.166 18.147Z" fill="currentColor"/>
                                          <path d="M49.6227 5.83325L14.7776 5.83325V8.70681L49.6227 8.70681C52.5265 8.70681 55.4302 11.5804 55.4302 14.4539V31.6953H58.334V14.4539C58.334 8.70682 55.4302 5.83325 49.6227 5.83325Z" fill="currentColor"/>
                                          <path d="M14.584 49.5833C11.7964 49.5833 8.75065 46.9827 8.75065 44.2241V13.8792H5.83398V44.2241C5.83398 49.7413 8.6216 52.4999 14.1968 52.4999L30.9225 52.4999V49.5833H14.584Z" fill="currentColor"/>
                                          <path d="M33.0132 52.4999V49.5833L38.5884 49.483V52.4999H33.0132Z" fill="currentColor"/>
                                          <path d="M43.7507 37.9167C43.7507 32.0834 46.6673 29.1667 52.5007 29.1667H58.334C64.1673 29.1667 67.084 32.0834 67.084 37.9167H70.0007V43.7501H67.084C67.084 49.5834 64.1673 52.5001 58.334 52.5001V49.5834C61.2507 49.5834 64.1673 46.6667 64.1673 43.7501V37.9167C64.1673 35.0001 61.2507 32.0834 58.334 32.0834H52.5007C49.584 32.0834 46.6673 35.0001 46.6673 37.9167V43.7501H40.834V37.9167H43.7507Z" fill="currentColor"/>
                                          <rect y="2.91675" width="14.5833" height="8.75" fill="#0752C5"/>
                                          <path fill-rule="evenodd" clip-rule="evenodd" d="M2.91668 2.92688V4.02148e-07L11.6668 0V2.91642H14.5833L14.5833 11.7093H11.6668V14.6362H2.91668V11.7093H0V2.9274L2.91668 2.92688ZM5.83338 11.7089V8.78159H2.9167V5.85419H5.83338V2.92731H8.74994V5.85419H11.6666V5.83309L11.6667 8.78201L8.74994 8.78159V11.7089H5.83338Z" fill="currentColor"/>
                                       </svg>