<svg width="16" height="16" viewBox="0 0 16 16" fill="none" xmlns="http://www.w3.org/2000/svg">
                                 <path fill-rule="evenodd" clip-rule="evenodd" d="M6.76923 1.23077C3.71042 1.23077 1.23077 3.71042 1.23077 6.76923C1.23077 9.82804 3.71042 12.3077 6.76923 12.3077C8.29881 12.3077 9.68258 11.6885 10.6855 10.6855C11.6885 9.68258 12.3077 8.29881 12.3077 6.76923C12.3077 3.71042 9.82804 1.23077 6.76923 1.23077ZM0 6.76923C0 3.03069 3.03069 0 6.76923 0C10.5078 0 13.5385 3.03069 13.5385 6.76923C13.5385 8.41668 12.9493 9.92743 11.9712 11.1009L15.8198 14.9495C16.0601 15.1898 16.0601 15.5794 15.8198 15.8198C15.5794 16.0601 15.1898 16.0601 14.9495 15.8198L11.1009 11.9712C9.92743 12.9493 8.41668 13.5385 6.76923 13.5385C3.03069 13.5385 0 10.5078 0 6.76923Z" fill="currentColor"/>
                              </svg>