<svg class="mr-5" width="16" height="14" viewBox="0 0 16 14" fill="none" xmlns="http://www.w3.org/2000/svg">
                                       <path d="M2.44455 0.292933C3.93432 0.0990803 5.45281 0 6.99428 0C8.53575 0 10.0542 0.0997982 11.544 0.292933C12.9239 0.472426 13.9068 1.62908 13.9887 2.96882C13.7486 2.88885 13.4999 2.83799 13.2477 2.81733C11.2361 2.65033 9.21411 2.65033 7.20249 2.81733C5.50953 2.95805 4.30192 4.38969 4.30192 6.00082V9.07805C4.30124 9.6695 4.46402 10.2496 4.77227 10.7544C5.08052 11.2592 5.52226 11.6689 6.04872 11.9385L4.14397 13.8425C4.06866 13.9177 3.97276 13.9689 3.86837 13.9897C3.76398 14.0104 3.65578 13.9998 3.55745 13.959C3.45911 13.9183 3.37505 13.8494 3.31587 13.7609C3.2567 13.6724 3.22507 13.5684 3.22497 13.462V10.5686C2.96449 10.5409 2.70434 10.5102 2.44455 10.4767C1.00288 10.2886 -0.00585938 9.03425 -0.00585938 7.61913V3.15047C-0.00585938 1.73606 1.00288 0.480324 2.44455 0.292933Z" fill="currentColor"/>
                                       <path d="M10.2252 3.76953C9.23724 3.76953 8.25866 3.81046 7.29156 3.89087C6.1859 3.98277 5.37891 4.92044 5.37891 6.00171V9.07823C5.37891 10.1602 6.18877 11.0986 7.29587 11.1891C8.1883 11.2623 9.09077 11.3018 10.0012 11.3075L11.9985 13.3042C12.0738 13.3794 12.1697 13.4306 12.2741 13.4514C12.3785 13.4721 12.4867 13.4615 12.585 13.4207C12.6834 13.38 12.7674 13.3111 12.8266 13.2226C12.8858 13.1341 12.9174 13.0301 12.9175 12.9237V11.2077L13.1544 11.1891C14.2615 11.0993 15.0714 10.1602 15.0714 9.07823V6.00099C15.0714 4.92044 14.2637 3.98277 13.1588 3.89015C12.183 3.80946 11.2043 3.76922 10.2252 3.76953Z" fill="currentColor"/>
                                    </svg>