<svg width="70" height="70" viewBox="0 0 70 70" fill="none" xmlns="http://www.w3.org/2000/svg">
                                          <path d="M29.168 29.167C24.3355 29.167 20.418 33.0845 20.418 37.917V58.3337H70.0013V55.417C70.0013 50.5845 66.0838 46.667 61.2513 46.667H37.918V29.167H29.168Z" fill="#10302A"/>
                                          <rect x="32.082" y="29.167" width="8.75" height="8.75" fill="currentColor"/>
                                          <path fill-rule="evenodd" clip-rule="evenodd" d="M0 1.45833C0 0.652918 0.652918 0 1.45833 0H53.9583C54.7638 0 55.4167 0.652918 55.4167 1.45833V8.75H0V1.45833ZM2.91667 5.83333H52.5V2.91667H2.91667V5.83333Z" fill="currentColor"/>
                                          <path d="M0 16.0417C0 15.2363 0.652918 14.5833 1.45833 14.5833H53.9583C54.7638 14.5833 55.4167 15.2363 55.4167 16.0417L55.4167 23.3333H40.8333V20.4167H52.5V17.5H2.91667V20.4167H25.9V23.3333H0V16.0417Z" fill="currentColor"/>
                                          <path d="M28.7 20.4168H32.0833V23.3334H28.7V20.4168Z" fill="currentColor"/>
                                          <path fill-rule="evenodd" clip-rule="evenodd" d="M1.45833 29.1667C0.652918 29.1667 0 29.8196 0 30.625V37.9167H14.5833V30.625C14.5833 29.8196 13.9304 29.1667 13.125 29.1667H1.45833ZM11.6667 35H2.91667V32.0833H11.6667V35Z" fill="currentColor"/>
                                          <path fill-rule="evenodd" clip-rule="evenodd" d="M14.5833 52.5H0V45.2083C0 44.4029 0.652918 43.75 1.45833 43.75H13.125C13.9304 43.75 14.5833 44.4029 14.5833 45.2083V52.5ZM2.91667 49.5833H11.6667V46.6667H2.91667V49.5833Z" fill="currentColor"/>
                                          <path d="M29.168 32.083V34.9997C26.2513 34.9997 23.3346 37.9163 23.3346 40.833V49.583H35.0013V40.833H37.918V49.583H61.2513C67.0846 49.583 70.0013 52.4997 70.0013 58.333V69.9997H67.0846V58.333H61.2513V69.9997H58.3346V58.333H46.668V55.4163H66.1514C65.0587 53.7422 63.155 52.4997 61.2513 52.4997H37.918V55.4163H40.8346V58.333H37.918V69.9997L35.0013 69.9997V58.333H23.3346L23.3346 69.9997L20.418 69.9997V40.833C20.418 34.9997 23.3346 32.083 29.168 32.083Z" fill="currentColor"/>
                                       </svg>