<svg class="mr-5" width="20" height="20" viewBox="0 0 20 20" fill="none" xmlns="http://www.w3.org/2000/svg">
                                          <path d="M19 7.04382V7.89341C19 8.27436 18.8985 8.6482 18.7062 8.97527C18.514 9.30233 18.2381 9.57042 17.908 9.75107L11.9283 13.0219M1 7.04382V7.89341C0.999985 8.27436 1.10149 8.6482 1.29376 8.97527C1.48602 9.30233 1.76186 9.57042 2.092 9.75107L8.07169 13.0219M8.07169 13.0219L9.01508 12.5062C9.31777 12.3405 9.65619 12.2538 10 12.2538C10.3438 12.2538 10.6822 12.3405 10.9849 12.5062L11.9292 13.0219L16.2308 15.3756M8.07169 13.0219L3.76923 15.3756M19 16.8901C19 17.4497 18.7812 17.9863 18.3917 18.382C18.0022 18.7777 17.4739 19 16.9231 19H3.07692C2.52609 19 1.99782 18.7777 1.60832 18.382C1.21882 17.9863 1 17.4497 1 16.8901V6.89753C0.999985 6.51658 1.10149 6.14274 1.29376 5.81567C1.48602 5.48861 1.76186 5.22052 2.092 5.03987L9.01508 1.25233C9.31777 1.0867 9.65619 1 10 1C10.3438 1 10.6822 1.0867 10.9849 1.25233L17.908 5.03987C18.238 5.22044 18.5138 5.48838 18.706 5.81527C18.8983 6.14216 18.9998 6.5158 19 6.89659V16.8901Z" stroke="currentColor" stroke-width="1.5" stroke-linecap="round" stroke-linejoin="round"/>
                                       </svg>