<svg class="mr-5" width="14" height="15" viewBox="0 0 14 15" fill="none" xmlns="http://www.w3.org/2000/svg">
                                       <path d="M0 12.0683C0.000926244 12.8416 0.308512 13.5829 0.855289 14.1297C1.40207 14.6765 2.14339 14.984 2.91665 14.985H11.0833C11.8565 14.984 12.5978 14.6765 13.1446 14.1297C13.6914 13.5829 13.999 12.8416 13.9999 12.0683V6.81836H0V12.0683ZM9.9166 9.44334C10.0897 9.44334 10.2588 9.49466 10.4027 9.5908C10.5466 9.68695 10.6588 9.82361 10.725 9.98349C10.7912 10.1434 10.8085 10.3193 10.7748 10.489C10.741 10.6588 10.6577 10.8147 10.5353 10.937C10.4129 11.0594 10.257 11.1428 10.0873 11.1765C9.91757 11.2103 9.74164 11.193 9.58175 11.1267C9.42187 11.0605 9.28521 10.9483 9.18907 10.8045C9.09292 10.6606 9.0416 10.4914 9.0416 10.3183C9.0416 10.0863 9.13379 9.86371 9.29788 9.69962C9.46198 9.53553 9.68454 9.44334 9.9166 9.44334ZM6.99995 9.44334C7.17301 9.44334 7.34218 9.49466 7.48607 9.5908C7.62996 9.68695 7.74211 9.82361 7.80834 9.98349C7.87457 10.1434 7.89189 10.3193 7.85813 10.489C7.82437 10.6588 7.74104 10.8147 7.61867 10.937C7.4963 11.0594 7.34039 11.1428 7.17065 11.1765C7.00092 11.2103 6.82499 11.193 6.66511 11.1267C6.50522 11.0605 6.36857 10.9483 6.27242 10.8045C6.17627 10.6606 6.12496 10.4914 6.12496 10.3183C6.12496 10.0863 6.21714 9.86371 6.38124 9.69962C6.54533 9.53553 6.76789 9.44334 6.99995 9.44334ZM4.0833 9.44334C4.25636 9.44334 4.42553 9.49466 4.56943 9.5908C4.71332 9.68695 4.82547 9.82361 4.89169 9.98349C4.95792 10.1434 4.97525 10.3193 4.94149 10.489C4.90772 10.6588 4.82439 10.8147 4.70202 10.937C4.57965 11.0594 4.42374 11.1428 4.25401 11.1765C4.08428 11.2103 3.90834 11.193 3.74846 11.1267C3.58857 11.0605 3.45192 10.9483 3.35577 10.8045C3.25963 10.6606 3.20831 10.4914 3.20831 10.3183C3.20831 10.0863 3.3005 9.86371 3.46459 9.69962C3.62868 9.53553 3.85124 9.44334 4.0833 9.44334Z" fill="currentColor"/>
                                       <path d="M11.0833 2.15201H10.4999V1.56868C10.4999 1.41397 10.4385 1.2656 10.3291 1.1562C10.2197 1.04681 10.0713 0.985352 9.9166 0.985352C9.76189 0.985352 9.61352 1.04681 9.50412 1.1562C9.39473 1.2656 9.33327 1.41397 9.33327 1.56868V2.15201H4.66663V1.56868C4.66663 1.41397 4.60518 1.2656 4.49578 1.1562C4.38639 1.04681 4.23801 0.985352 4.0833 0.985352C3.9286 0.985352 3.78022 1.04681 3.67083 1.1562C3.56143 1.2656 3.49998 1.41397 3.49998 1.56868V2.15201H2.91665C2.14339 2.15294 1.40207 2.46052 0.855289 3.0073C0.308512 3.55408 0.000926244 4.2954 0 5.06866L0 5.65199H13.9999V5.06866C13.999 4.2954 13.6914 3.55408 13.1446 3.0073C12.5978 2.46052 11.8565 2.15294 11.0833 2.15201Z" fill="currentColor"/>
                                    </svg>