<svg width="70" height="70" viewBox="0 0 70 70" fill="none" xmlns="http://www.w3.org/2000/svg">
                                          <path fill-rule="evenodd" clip-rule="evenodd" d="M35.0962 28C29.5202 28 25 32.1973 25 37.375V63.75C25 67.2018 28.0135 70 31.7308 70H60.2692C63.9865 70 67 67.4518 67 64V43.375C67 40.6826 64.6495 38.5 61.75 38.5C58.8505 38.5 56.5 36.3174 56.5 33.625V33.25C56.5 30.3505 53.9687 28 50.8462 28H35.0962ZM47.6154 55H41.1538L41.1538 67H47.6154V55ZM50.8462 55H57.3077L57.3077 67H50.8462L50.8462 55Z" fill="#F3F1F2"/>
                                          <rect x="58.332" y="32.083" width="8.75" height="8.75" fill="#0752C5"/>
                                          <path d="M58.3348 32.0837V29.167H67.0848V32.0837L70.0015 32.0837V40.8337H67.0848V43.7503H58.3348V40.8337L58.3348 37.917H61.2515V40.8337H64.1681V37.917H67.0848V35.0003H64.1681V32.0837H61.2515V35.0003H58.3348V40.8337L55.418 40.8331V32.0831L58.3348 32.0837Z" fill="currentColor"/>
                                          <path d="M40.7926 0H8.81111C2.93704 0 0 2.91667 0 8.75V61.25C0 67.0833 2.93704 70 8.81111 70H17.6222V67.0833H8.81111C5.87408 67.0833 2.93704 64.1667 2.93704 61.25L2.93704 8.75C2.93704 5.83333 5.87408 2.91667 8.81111 2.91667H40.7926C43.7296 2.91667 46.6667 5.83333 46.6667 8.75V32.0833H37.8797C31.7502 32.0833 29.1382 35 29.1382 40.8333V58.3333H32.0833V40.8333L58.3333 40.8333V37.9167L32.0833 37.9167C32.0833 36.4583 34.9658 35 37.8797 35L58.3333 35V32.0833L49.5833 32.0833V8.75C49.5833 2.91667 46.6667 0 40.7926 0Z" fill="currentColor"/>
                                          <path d="M34.9658 67.0833H32.052V64.1667H29.1382V67.0833H26.2244V70H34.9658V67.0833Z" fill="currentColor"/>
                                          <path fill-rule="evenodd" clip-rule="evenodd" d="M42.202 52.5H59.7407C60.5518 52.5 61.25 53.1529 61.25 53.9583V67.0833H64.1667V40.8333L67.0833 40.8333V70H40.859V53.9583C40.859 53.1529 41.391 52.5 42.202 52.5ZM52.4915 67.0833H58.3333V55.4167H52.5142L52.4915 67.0833ZM43.7728 55.4167H49.6004L49.5776 67.0833H43.75L43.7728 55.4167Z" fill="currentColor"/>
                                          <path fill-rule="evenodd" clip-rule="evenodd" d="M10.2083 14.583C9.40292 14.583 8.75 15.2359 8.75 16.0413V21.8747C8.75 22.6801 9.40292 23.333 10.2083 23.333H18.9583C19.7637 23.333 20.4167 22.6801 20.4167 21.8747V16.0413C20.4167 15.2359 19.7637 14.583 18.9583 14.583H10.2083ZM17.5 20.4163V17.4997H11.6667V20.4163H17.5Z" fill="currentColor"/>
                                          <path fill-rule="evenodd" clip-rule="evenodd" d="M10.2083 29.1663C9.40292 29.1663 8.75 29.8193 8.75 30.6247V36.458C8.75 37.2634 9.40292 37.9163 10.2083 37.9163H18.9583C19.7637 37.9163 20.4167 37.2634 20.4167 36.458V30.6247C20.4167 29.8193 19.7637 29.1663 18.9583 29.1663H10.2083ZM11.6667 34.9997H17.5V32.083H11.6667V34.9997Z" fill="currentColor"/>
                                          <path fill-rule="evenodd" clip-rule="evenodd" d="M20.4167 45.208C20.4167 44.4026 19.7637 43.7497 18.9583 43.7497H10.2083C9.40292 43.7497 8.75 44.4026 8.75 45.208V51.0413C8.75 51.8468 9.40292 52.4997 10.2083 52.4997H18.9583C19.7637 52.4997 20.4167 51.8468 20.4167 51.0413V45.208ZM17.5 49.583H11.6667V46.6663H17.5V49.583Z" fill="currentColor"/>
                                       </svg>