<svg width="60" height="60" viewBox="0 0 60 60" fill="none" xmlns="http://www.w3.org/2000/svg">
                                          <rect x="2.5" y="10" width="7.5" height="7.5" transform="rotate(-90 2.5 10)" fill="#0752C5"/>
                                          <path d="M56.9126 20.1271C57.4211 19.6389 57.4211 18.8475 56.9126 18.3593L51.7304 13.3844C51.2219 12.8963 50.3975 12.8963 49.889 13.3844L21.858 40.2942C21.3495 40.7824 21.3495 41.5738 21.858 42.062L27.0402 47.0369C27.5487 47.525 28.3731 47.525 28.8816 47.0369L56.9126 20.1271Z" fill="#F3F1F2"/>
                                          <path d="M27.5 50H12.5V52.5H27.5V50Z" fill="#F3F1F2"/>
                                          <path d="M49.9787 12.8432C50.4767 12.3651 51.2842 12.3651 51.7822 12.8432L57.3074 18.1474C57.8054 18.6255 57.8054 19.4006 57.3074 19.8787L56.3677 20.7808L49.039 13.7453L49.9787 12.8432Z" fill="currentColor"/>
                                          <path fill-rule="evenodd" clip-rule="evenodd" d="M55.4084 21.3245L48.8203 15L48.3726 14.5722L27.5404 34.5712L25.2519 32.3743L23.4105 34.142L34.0708 44.3759L35.9122 42.6081L34.7254 41.4688L40 36.4051V52.5H29.7474C28.9983 49.1667 26.5825 47.5 22.5 47.5H17.5C13.4175 47.5 11.0017 49.1667 10.2526 52.5H7.5V52.5031C2.5 52.602 0 55.101 0 60H7.5V57.5H3.43738C4.413 56.065 6.11275 55 7.8125 55H52.5C54.1318 55 55.7635 56.065 56.7001 57.5H17.5V60H60C60 55 57.5 52.5 52.5 52.5H47.5V29.2051L55.5461 21.4808L55.3958 21.3366L55.4084 21.3245ZM45 31.6051L42.5 34.0051V52.5H45V31.6051ZM29.3818 36.339L48.3737 18.1068L51.7406 21.3389L32.7487 39.5711L29.3818 36.339ZM22.5 50C24.1318 50 25.7635 51.065 26.7001 52.5H13.2999C14.2365 51.065 15.8682 50 17.5 50H22.5Z" fill="currentColor"/>
                                          <path d="M28.5405 40.5312L22.7788 35L20.9373 36.7678L26.6991 42.299L28.5405 40.5312Z" fill="currentColor"/>
                                          <path d="M30.4118 42.3282L33.4387 45.2339L31.5972 47.0017L28.5704 44.0959L30.4118 42.3282Z" fill="currentColor"/>
                                          <path d="M10 57.5H12.5V60H10V57.5Z" fill="currentColor"/>
                                          <path d="M18.3329 20.3033L20.1742 18.5356L18.3329 16.7678L20.1743 15.0001L22.0157 16.7678L23.8571 15L25.6985 16.7678L23.8571 18.5356L25.6985 20.3034L23.8571 22.0711L22.0157 20.3033L20.1743 22.0711L18.3329 20.3033Z" fill="currentColor"/>
                                          <path d="M6.39025 29.2678L4.54883 31.0356L6.39025 32.8033L4.54883 34.5711L6.39025 36.3389L8.23168 34.5711L10.0731 36.3389L11.9145 34.5711L10.0731 32.8033L11.9145 31.0356L10.0731 29.2678L8.23168 31.0356L6.39025 29.2678Z" fill="currentColor"/>
                                          <path d="M2.50015 2.5V0H10.0002V2.5L12.5002 2.5V10H10.0002V12.5H2.50015V10L2.50015 7.5H5.00015V10H7.50015V7.5H10.0002V5H7.50015V2.5H5.00015V5H2.50015V10L0 9.9995V2.4995L2.50015 2.5Z" fill="currentColor"/>
                                       </svg>