<svg width="126" height="240" viewBox="0 0 126 240" xmlns="http://www.w3.org/2000/svg" aria-hidden="true" data-testid="svg-content" class="svgContainer-rWBapm"><defs><linearGradient id="gradient_«r6»" y1="0%" y2="0%" x1="0%" x2="100%"><stop offset="0%" stop-color="rgba(255,255,255,1)"/><stop offset="50%" stop-color="rgba(255,255,255,1)"/><stop offset="100%" stop-color="rgba(255,255,255,0)"/></linearGradient></defs><clipPath id="clipPath_«r6»"><path d="M118.139 135.128C118.139 115.506 106.178 108.517 81.1794 108.517C68.277 108.517 57.9282 111.071 49.9986 116.312C50.4018 107.308 53.8962 101.663 62.901 101.663C68.1426 101.663 70.6962 103.007 71.9058 105.023H118.005C114.107 86.4756 104.834 76.5299 89.9154 72.2291C82.389 69.9443 73.7874 68.8691 63.3042 68.8691C26.8818 68.8691 7.125 86.8787 7.125 120.748C7.125 142.117 13.7106 156.901 30.5106 164.696C38.8434 168.594 49.9986 170.476 64.245 170.476C85.4802 170.476 101.877 165.368 111.285 154.751C115.855 149.509 118.139 143.058 118.139 135.128ZM64.1106 135.666C59.0034 135.666 55.6434 134.053 53.493 131.5C57.2562 128.946 61.8258 126.796 67.7394 126.796C72.981 126.796 74.5938 128.274 74.5938 130.828C74.5938 133.919 71.9058 135.666 64.1106 135.666Z"/></clipPath><rect x="0" y="0" width="100%" height="100%" fill="url(#gradient_«r6»)" class="gradientFill-ch2r62 fillAnimation-EOtMMK" clip-path="url(#clipPath_«r6»)"/><rect x="0" y="0" width="100%" height="100%" fill="white" class="solidFill-ruuZur fillAnimation-EOtMMK" clip-path="url(#clipPath_«r6»)"/></svg>