<svg width="126" height="240" viewBox="0 0 126 240" xmlns="http://www.w3.org/2000/svg" aria-hidden="true" data-testid="svg-content" class="svgContainer-rWBapm"><defs><linearGradient id="gradient_«r8»" y1="0%" y2="0%" x1="0%" x2="100%"><stop offset="0%" stop-color="rgba(255,255,255,1)"/><stop offset="50%" stop-color="rgba(255,255,255,1)"/><stop offset="100%" stop-color="rgba(255,255,255,0)"/></linearGradient></defs><clipPath id="clipPath_«r8»"><path d="M63.2557 170.071C101.963 170.071 119.301 160.798 119.301 140.638C119.301 130.692 112.446 123.031 99.6781 119.134C110.43 116.043 116.344 109.726 116.344 99.2427C116.344 80.2923 100.888 69.2715 63.6589 69.2715C38.6605 69.2715 23.6077 73.8411 16.6189 82.7115C13.2589 87.1467 11.3773 92.6571 11.3773 99.1083C11.3773 109.323 16.7533 116.043 27.3709 119.268C14.1997 123.166 7.21094 131.23 7.21094 141.982C7.21094 161.604 24.1453 170.071 63.2557 170.071ZM63.7933 111.473C55.4605 111.473 51.9661 110.667 51.9661 107.844C51.9661 105.156 55.8637 103.812 63.7933 103.812C72.3949 103.812 75.7549 105.156 75.7549 107.844C75.7549 110.667 72.1261 111.473 63.7933 111.473ZM63.7933 135.531C54.9229 135.531 51.0253 134.859 51.0253 131.767C51.0253 128.945 55.3261 127.601 63.7933 127.601C72.9325 127.601 76.5613 128.945 76.5613 131.767C76.5613 134.859 72.6637 135.531 63.7933 135.531Z"/></clipPath><rect x="0" y="0" width="100%" height="100%" fill="url(#gradient_«r8»)" class="gradientFill-ch2r62 fillAnimation-EOtMMK" clip-path="url(#clipPath_«r8»)"/><rect x="0" y="0" width="100%" height="100%" fill="white" class="solidFill-ruuZur fillAnimation-EOtMMK" clip-path="url(#clipPath_«r8»)"/></svg>