<svg width="126" height="240" viewBox="0 0 126 240" xmlns="http://www.w3.org/2000/svg" aria-hidden="true" data-testid="svg-content" class="svgContainer-rWBapm"><defs><linearGradient id="gradient_«r5»" y1="0%" y2="0%" x1="0%" x2="100%"><stop offset="0%" stop-color="rgba(255,255,255,1)"/><stop offset="50%" stop-color="rgba(255,255,255,1)"/><stop offset="100%" stop-color="rgba(255,255,255,0)"/></linearGradient></defs><clipPath id="clipPath_«r5»"><path d="M65.3658 169.063C99.7722 169.063 116.841 156.295 116.841 135.463C116.841 116.379 104.073 106.567 78.8058 106.567C68.1882 106.567 60.393 108.852 54.6138 114.631L55.4202 102.67H81.2251C95.6059 102.67 103.804 101.326 108.105 96.6217C112.675 91.9177 113.615 83.7193 113.615 70.2793H16.5786L12.8154 121.486L53.2698 129.953C55.2858 128.206 58.7802 126.459 64.425 126.459C70.7418 126.459 73.0266 128.206 73.0266 131.431C73.0266 134.522 70.0698 136.673 64.6938 136.673C59.049 136.673 56.2266 135.194 55.689 132.91H9.58984C11.337 148.231 17.9226 158.983 33.7818 164.763C41.577 167.585 52.0602 169.063 65.3658 169.063Z"/></clipPath><rect x="0" y="0" width="100%" height="100%" fill="url(#gradient_«r5»)" class="gradientFill-ch2r62 fillAnimation-EOtMMK" clip-path="url(#clipPath_«r5»)"/><rect x="0" y="0" width="100%" height="100%" fill="white" class="solidFill-ruuZur fillAnimation-EOtMMK" clip-path="url(#clipPath_«r5»)"/></svg>