<svg width="126" height="240" viewBox="0 0 126 240" xmlns="http://www.w3.org/2000/svg" aria-hidden="true" data-testid="svg-content" class="svgContainer-rWBapm"><defs><linearGradient id="gradient_«ra»" y1="0%" y2="0%" x1="0%" x2="100%"><stop offset="0%" stop-color="rgba(255,255,255,1)"/><stop offset="50%" stop-color="rgba(255,255,255,1)"/><stop offset="100%" stop-color="rgba(255,255,255,0)"/></linearGradient></defs><clipPath id="clipPath_«ra»"><path d="M6 146.482H54.2687V126.363H41.7867V94.374H23.5326C21.1516 100.091 16.8947 102.769 10.9062 103.348V118.112H20.1415V126.363H6V146.482Z"/><path d="M88.4677 147.858C101.599 147.858 111.051 143.95 116.174 135.917C118.771 131.864 119.997 126.798 119.997 120.574C119.997 109.067 114.586 100.671 105.207 96.3291C100.589 94.0856 95.1777 93 88.9006 93C76.0574 93 66.2449 97.4871 60.9058 105.81C58.3084 109.863 56.9375 114.784 56.9375 120.574C56.9375 139.174 68.4816 147.858 88.4677 147.858ZM88.4677 128.245C83.561 128.245 80.3864 125.495 80.3864 120.574C80.3864 115.797 83.561 112.758 88.4677 112.758C93.374 112.758 96.5486 115.797 96.5486 120.574C96.5486 125.495 93.374 128.245 88.4677 128.245Z"/></clipPath><rect x="0" y="0" width="100%" height="100%" fill="url(#gradient_«ra»)" class="gradientFill-ch2r62 fillAnimation-EOtMMK" clip-path="url(#clipPath_«ra»)"/><rect x="0" y="0" width="100%" height="100%" fill="white" class="solidFill-ruuZur fillAnimation-EOtMMK" clip-path="url(#clipPath_«ra»)"/></svg>