<svg xmlns="http://www.w3.org/2000/svg" width="25" height="25" fill="none" viewBox="0 0 25 25"><path fill="#fff" fill-rule="evenodd" d="M8.6 4.994c-.337.166-.66.353-.97.56l-1.947-.812a1.5 1.5 0 0 0-1.877.634L1.822 8.812a1.5 1.5 0 0 0 .39 1.943l1.678 1.28a8.596 8.596 0 0 0 0 1.118l-1.678 1.28a1.5 1.5 0 0 0-.39 1.943l1.984 3.436a1.5 1.5 0 0 0 1.877.634l1.947-.813c.31.207.633.395.97.56l.269 2.092a1.5 1.5 0 0 0 1.488 1.309h3.967a1.5 1.5 0 0 0 1.488-1.309l.269-2.091c.336-.166.66-.354.97-.561l1.947.813a1.5 1.5 0 0 0 1.877-.634l1.983-3.436a1.5 1.5 0 0 0-.389-1.943l-1.678-1.28a8.63 8.63 0 0 0 0-1.118l1.678-1.28a1.5 1.5 0 0 0 .39-1.943l-1.984-3.436a1.5 1.5 0 0 0-1.877-.634l-1.948.813a8.454 8.454 0 0 0-.969-.561l-.27-2.092a1.5 1.5 0 0 0-1.487-1.308h-3.967a1.5 1.5 0 0 0-1.488 1.308l-.27 2.092zm1.834 1.416A6.48 6.48 0 0 0 7.94 7.852L5.318 6.757 3.774 9.43l2.258 1.722a6.49 6.49 0 0 0 0 2.881l-2.258 1.723 1.544 2.674 2.622-1.095a6.462 6.462 0 0 0 2.494 1.441l.362 2.817h3.088l.363-2.817c.94-.29 1.79-.788 2.493-1.441l2.623 1.095 1.544-2.674-2.259-1.723a6.489 6.489 0 0 0 0-2.88l2.259-1.723-1.544-2.674-2.623 1.095a6.461 6.461 0 0 0-2.493-1.441l-.363-2.817h-3.088l-.362 2.816zm1.906 10.184a4 4 0 1 0 0-8 4 4 0 0 0 0 8zm0-2a2 2 0 1 0 0-4 2 2 0 0 0 0 4z" clip-rule="evenodd"/></svg>