<svg width="126" height="240" viewBox="0 0 126 240" xmlns="http://www.w3.org/2000/svg" aria-hidden="true" data-testid="svg-content" class="svgContainer-rWBapm"><defs><linearGradient id="gradient_«r2»" y1="0%" y2="0%" x1="0%" x2="100%"><stop offset="0%" stop-color="rgba(255,255,255,1)"/><stop offset="50%" stop-color="rgba(255,255,255,1)"/><stop offset="100%" stop-color="rgba(255,255,255,0)"/></linearGradient></defs><clipPath id="clipPath_«r2»"><path d="M9.32227 169.063H114.289V134.522H51.2551C55.1527 132.506 62.1415 131.7 70.6087 130.759C78.9415 129.818 87.8119 128.474 95.7415 126.19C103.268 123.905 109.585 119.873 113.213 113.556C114.961 110.33 115.901 106.433 115.901 101.729C115.901 82.2409 100.445 70.2793 64.9639 70.2793C29.6167 70.2793 11.4727 82.2409 9.85987 109.255H51.7927C52.1959 105.492 54.7495 102.938 64.1575 102.938C72.6247 102.938 74.3719 104.417 74.3719 106.567C74.3719 108.314 70.4743 109.39 64.2919 110.062C61.2007 110.465 57.7063 110.868 53.9431 111.406C44.4007 112.615 33.5143 114.631 24.5095 119.201C15.5047 123.636 9.32227 131.028 9.32227 142.721V169.063Z"/></clipPath><rect x="0" y="0" width="100%" height="100%" fill="url(#gradient_«r2»)" class="gradientFill-ch2r62 fillAnimation-EOtMMK" clip-path="url(#clipPath_«r2»)"/><rect x="0" y="0" width="100%" height="100%" fill="white" class="solidFill-ruuZur fillAnimation-EOtMMK" clip-path="url(#clipPath_«r2»)"/></svg>