<svg xmlns="http://www.w3.org/2000/svg" class="fbl-icon _30dE3d _1a_Ljt" viewBox="0 0 24 24" height="24" width="24" role="img" aria-hidden="true"><title>Back</title><svg fill="none" xmlns="http://www.w3.org/2000/svg"><path d="M15.578 3.099 C 15.424 3.176,14.455 4.124,11.255 7.329 C 7.474 11.115,7.124 11.476,7.065 11.657 C 6.983 11.906,6.983 12.094,7.065 12.343 C 7.124 12.524,7.474 12.885,11.255 16.671 C 14.023 19.443,15.433 20.827,15.540 20.879 C 15.790 21.000,15.999 21.018,16.265 20.940 C 16.581 20.849,16.844 20.590,16.936 20.283 C 17.016 20.013,17.016 19.949,16.937 19.677 C 16.875 19.466,16.775 19.362,13.147 15.730 L 9.421 12.000 13.129 8.290 C 16.006 5.411,16.855 4.540,16.917 4.400 C 17.022 4.168,17.025 3.799,16.925 3.578 C 16.834 3.377,16.518 3.094,16.325 3.041 C 16.070 2.970,15.793 2.992,15.578 3.099 " fill="currentColor" stroke="none" fill-rule="evenodd"/></svg></svg>