<svg width="126" height="240" viewBox="0 0 126 240" xmlns="http://www.w3.org/2000/svg" aria-hidden="true" data-testid="svg-content" class="svgContainer-rWBapm"><defs><linearGradient id="gradient_«r3»" y1="0%" y2="0%" x1="0%" x2="100%"><stop offset="0%" stop-color="rgba(255,255,255,1)"/><stop offset="50%" stop-color="rgba(255,255,255,1)"/><stop offset="100%" stop-color="rgba(255,255,255,0)"/></linearGradient></defs><clipPath id="clipPath_«r3»"><path d="M63.1846 170.342C101.489 170.342 118.961 157.977 118.961 138.22C118.961 124.914 109.821 119.538 96.919 117.254C110.225 114.162 116.81 107.711 116.81 97.2279C116.81 86.0727 110.359 77.4711 95.575 72.6327C88.183 70.0791 78.6406 69.0039 66.5446 69.0039C42.3526 69.0039 25.5526 73.1703 16.5478 84.3255C12.1126 89.7015 9.82777 97.2279 9.42457 106.77H49.879C50.0134 103.545 52.4326 101.529 61.8406 101.529C70.9798 101.529 72.9958 103.007 72.9958 105.158C72.9958 107.308 71.5174 108.786 63.0502 108.786H52.7014V129.081H62.9158C72.8614 129.081 74.2054 129.753 74.2054 132.306C74.2054 134.591 71.383 136.473 62.5126 136.473C52.567 136.473 50.8198 134.994 50.4166 131.634H7.54297C7.67737 143.999 10.3654 153.81 18.295 160.261C26.359 166.981 40.0678 170.342 63.1846 170.342Z"/></clipPath><rect x="0" y="0" width="100%" height="100%" fill="url(#gradient_«r3»)" class="gradientFill-ch2r62 fillAnimation-EOtMMK" clip-path="url(#clipPath_«r3»)"/><rect x="0" y="0" width="100%" height="100%" fill="white" class="solidFill-ruuZur fillAnimation-EOtMMK" clip-path="url(#clipPath_«r3»)"/></svg>