<svg width="126" height="240" viewBox="0 0 126 240" xmlns="http://www.w3.org/2000/svg" aria-hidden="true" data-testid="svg-content" class="svgContainer-rWBapm"><defs><linearGradient id="gradient_«r9»" y1="0%" y2="0%" x1="0%" x2="100%"><stop offset="0%" stop-color="rgba(255,255,255,1)"/><stop offset="50%" stop-color="rgba(255,255,255,1)"/><stop offset="100%" stop-color="rgba(255,255,255,0)"/></linearGradient></defs><clipPath id="clipPath_«r9»"><path d="M62.6462 170.476C100.413 170.476 118.96 153.676 118.96 119.672C118.96 87.0131 102.294 68.8691 64.5278 68.8691C38.5886 68.8691 22.4606 75.0515 14.3966 85.8035C10.499 91.1795 8.48304 97.4963 8.48304 104.754C8.48304 123.167 22.0574 130.424 45.3086 130.424C58.6142 130.424 68.6942 128.005 76.0862 122.898C75.9518 132.44 72.995 137.951 63.4526 137.951C57.8078 137.951 55.6574 136.472 54.7166 133.919H7.27344C10.6334 152.6 20.3102 162.68 35.7662 167.25C43.2926 169.4 52.4318 170.476 62.6462 170.476ZM58.883 111.743C53.7758 111.743 52.0286 110.13 52.0286 107.576C52.0286 104.485 54.7166 102.066 62.6462 102.066C68.4254 102.066 72.1886 103.679 73.9358 107.308C70.0382 109.996 65.1998 111.743 58.883 111.743Z"/></clipPath><rect x="0" y="0" width="100%" height="100%" fill="url(#gradient_«r9»)" class="gradientFill-ch2r62 fillAnimation-EOtMMK" clip-path="url(#clipPath_«r9»)"/><rect x="0" y="0" width="100%" height="100%" fill="white" class="solidFill-ruuZur fillAnimation-EOtMMK" clip-path="url(#clipPath_«r9»)"/></svg>