<svg xmlns="http://www.w3.org/2000/svg" width="25" height="24" fill="none" viewBox="0 0 25 24"><path stroke="#fff" stroke-linecap="round" stroke-linejoin="round" stroke-width="2" d="M15 20V4L8.115 7.934A.5.5 0 0 1 7.867 8H3.5a.5.5 0 0 0-.5.5v7a.5.5 0 0 0 .5.5h4.367a.5.5 0 0 1 .248.066L15 20z"/><path fill="#fff" d="M17.5 12a2 2 0 0 1-2 2v-4a2 2 0 0 1 2 2z"/><path fill="#fff" fill-rule="evenodd" d="M18.536 7.08a.75.75 0 0 1 1.053.125A7.72 7.72 0 0 1 21.25 12a7.72 7.72 0 0 1-1.661 4.795.75.75 0 1 1-1.178-.929A6.22 6.22 0 0 0 19.75 12c0-1.46-.5-2.802-1.339-3.866a.75.75 0 0 1 .125-1.053z" clip-rule="evenodd"/><path fill="#fff" fill-rule="evenodd" d="M20.524 4.438a.75.75 0 0 1 1.055.103 11.705 11.705 0 0 1 2.671 7.46c0 2.83-1.002 5.43-2.67 7.458a.75.75 0 1 1-1.16-.953A10.205 10.205 0 0 0 22.75 12a10.2 10.2 0 0 0-2.33-6.506.75.75 0 0 1 .104-1.056z" clip-rule="evenodd"/></svg>